<?xml version="1.0" encoding="UTF-8" standalone="no"?>
<svg width="500px" height="559px" viewBox="0 0 500 559" version="1.1" xmlns="http://www.w3.org/2000/svg" xmlns:xlink="http://www.w3.org/1999/xlink" xmlns:sketch="http://www.bohemiancoding.com/sketch/ns">
    <!-- Generator: Sketch 3.4.4 (17249) - http://www.bohemiancoding.com/sketch -->
    <title>Group</title>
    <desc>Created with Sketch.</desc>
    <defs>
        <linearGradient x1="48.854178%" y1="-1.64893213%" x2="53.7483342%" y2="172.581904%" id="linearGradient-1">
            <stop stop-color="#29ABE2" offset="0%"></stop>
            <stop stop-color="#FCEE21" offset="100%"></stop>
        </linearGradient>
        <linearGradient x1="49.6575963%" y1="1.56031975%" x2="52.412117%" y2="248.556343%" id="linearGradient-2">
            <stop stop-color="#29ABE2" offset="0%"></stop>
            <stop stop-color="#FCEE21" offset="100%"></stop>
        </linearGradient>
        <linearGradient x1="-35.0292096%" y1="44.1034476%" x2="680.557268%" y2="95.8183813%" id="linearGradient-3">
            <stop stop-color="#29ABE2" offset="0%"></stop>
            <stop stop-color="#FCEE21" offset="100%"></stop>
        </linearGradient>
        <linearGradient x1="74.9259111%" y1="101.254841%" x2="-12.6459588%" y2="-72.1846845%" id="linearGradient-4">
            <stop stop-color="#29ABE2" offset="0%"></stop>
            <stop stop-color="#FCEE21" offset="100%"></stop>
        </linearGradient>
        <linearGradient x1="59.0628691%" y1="95.4274419%" x2="0.183478123%" y2="-135.628571%" id="linearGradient-5">
            <stop stop-color="#29ABE2" offset="0%"></stop>
            <stop stop-color="#FCEE21" offset="100%"></stop>
        </linearGradient>
        <linearGradient x1="54.4279136%" y1="129.277654%" x2="15.2619541%" y2="-551.216318%" id="linearGradient-6">
            <stop stop-color="#29ABE2" offset="0%"></stop>
            <stop stop-color="#FCEE21" offset="100%"></stop>
        </linearGradient>
    </defs>
    <g id="Page-1" stroke="none" stroke-width="1" fill="none" fill-rule="evenodd" sketch:type="MSPage">
        <g id="Group" sketch:type="MSLayerGroup" transform="translate(0.000000, -9.761349)">
            <path d="M84.5713359,407.685473 C84.5713359,407.685473 42.0894942,468.141375 109.658236,547.679637 C109.658236,547.679637 83.4747082,524.965629 68.4169909,535.818418 C53.3592737,546.671206 55.9669261,570.005837 89.0376135,567.9131 C122.108301,565.820363 142.341764,561.954604 142.341764,561.954604 C142.341764,561.954604 125.183528,509.249676 152.251621,490.788586 C179.320363,472.3262 84.5713359,407.685473 84.5713359,407.685473 L84.5713359,407.685473 Z" id="Shape" fill="#074541" sketch:type="MSShapeGroup"></path>
            <path d="M288.883917,407.685473 C288.883917,407.685473 331.365759,468.141375 263.797017,547.679637 C263.797017,547.679637 289.980545,524.965629 305.038911,535.818418 C320.096628,546.671206 317.488327,570.005837 284.418288,567.9131 C251.348249,565.820363 231.114137,561.954604 231.114137,561.954604 C231.114137,561.954604 248.271725,509.249676 221.203632,490.788586 C194.135538,472.327497 288.883917,407.685473 288.883917,407.685473 L288.883917,407.685473 Z" id="Shape" fill="#074541" sketch:type="MSShapeGroup"></path>
            <ellipse id="Oval" fill="#095D57" sketch:type="MSShapeGroup" cx="187.207523" cy="356.285992" rx="121.766537" ry="141.514267"></ellipse>
            <path d="M282.82166,268.93904 C282.82166,268.93904 346.656939,350.218547 278.039559,412.257458 C221.029831,463.801556 165.213359,397.76524 226.74773,378.833333 C226.748379,378.832685 271.963684,367.51751 282.82166,268.93904 L282.82166,268.93904 Z" id="Shape" fill="#074541" sketch:type="MSShapeGroup"></path>
            <g id="stick" transform="translate(0.104672, 309.004111)" sketch:type="MSShapeGroup">
                <path d="M480.693904,36.3151751 C480.693904,53.6893645 465.250973,64.8378729 446.717899,67.7762646 C423.044099,71.5311284 412.741245,53.6893645 412.741245,36.3151751 C412.741245,18.9383917 423.044099,6.9766537 446.717899,4.85214008 C469.364462,2.82036316 480.693904,18.9383917 480.693904,36.3151751 L480.693904,36.3151751 Z" id="Shape" fill="#C7B299"></path>
                <path d="M467.994812,24.1407263 C467.322309,21.9280156 466.26978,19.8184176 464.888457,17.9552529 C464.199741,17.0226978 463.43061,16.1511025 462.603761,15.3463035 C461.777562,14.539559 460.905318,13.7801556 459.964981,13.1193256 C458.064851,11.8197147 455.964332,10.8955901 453.847601,10.154345 C449.587549,8.69390402 445.156291,8.14202335 440.780804,8.04798962 L440.488975,8.04150454 L440.465629,8.08949416 L440.452659,8.09143969 L440.195201,8.11932555 L439.667964,8.16536965 L438.603761,8.2457847 L436.466926,8.39169909 L432.184825,8.64526589 L436.470169,8.86964981 L438.616732,8.96303502 L439.693256,8.99351492 L440.236057,8.99935149 L440.51297,8.99740597 L440.658885,8.9922179 L440.740597,8.98702983 L440.757458,8.98508431 C445.018158,9.51361868 449.228923,10.4649805 453.066148,12.153048 C454.988975,12.9980545 456.783398,14.0687419 458.422179,15.2911803 C460.103113,16.4552529 461.605707,17.8618677 462.801556,19.497406 C465.231518,22.7483787 466.406615,26.8352789 466.369001,30.9396887 C466.345655,35.0518807 465.222438,39.1718547 463.327497,42.8651102 C461.42607,46.5492866 458.734112,49.8780804 455.372244,52.2049287 C453.69585,53.3618677 451.850195,54.2542153 449.915694,54.7302205 C448.950065,54.9701686 447.964332,55.1057069 446.978599,55.1238651 C445.945525,55.1387808 444.896239,55.1011673 443.853437,55.0201038 C439.706874,54.7016861 435.59144,53.5492866 432.419585,51.0674449 C430.83917,49.8378729 429.519455,48.2963684 428.555772,46.5434501 C428.071984,45.6679637 427.675097,44.7431907 427.370298,43.7892348 C427.218547,43.3125811 427.089494,42.8287938 426.98703,42.3424125 C426.935798,42.0998703 426.891699,41.8566796 426.855383,41.616083 C426.821012,41.3897536 426.787938,41.1031128 426.781453,40.9552529 C426.744488,38.9111543 426.893645,36.7568093 427.182879,34.6861219 C427.477951,32.6044099 427.931258,30.5505837 428.611543,28.6011673 C429.293126,26.6575875 430.208171,24.80869 431.453956,23.2769131 C432.69131,21.7418936 434.27821,20.5680934 436.09987,19.9552529 C437.008431,19.6459144 437.968223,19.4682231 438.950713,19.4079118 C439.441634,19.3761349 439.937743,19.3767834 440.437095,19.4001297 C440.684825,19.4118029 440.93904,19.4293126 441.182879,19.4539559 C441.447471,19.4824903 441.736057,19.5038911 441.979248,19.5376135 C444.019455,19.7788586 446.059014,20.2399481 447.894293,21.0376135 C449.732166,21.8300908 451.363813,22.9915694 452.536965,24.5123217 C453.712062,26.0311284 454.409857,27.8942931 454.629053,29.8573281 C454.857977,31.8216602 454.645266,33.8677043 454.140726,35.8424125 C453.885214,36.8307393 453.559663,37.806096 453.166667,38.7555123 C452.970169,39.229572 452.757458,39.6984436 452.53048,40.1595331 C452.307393,40.6238651 452.108301,40.9610895 451.831388,41.3022049 C450.767834,42.6452659 448.931907,43.3216602 447.00454,43.4150454 C445.061608,43.5220493 443.077821,43.0298314 441.201038,42.3955901 C439.353437,41.7178988 437.539559,40.6258106 436.5869,39.0862516 C436.123865,38.3229572 435.939689,37.4708171 436.140078,36.6141375 C436.333333,35.7561608 436.876135,34.9150454 437.574578,34.1893645 C438.293126,33.4708171 439.128405,32.7444877 439.959792,32.1070039 C440.801556,31.4682231 441.690661,30.8806744 442.648508,30.4928664 C443.585603,30.1044099 444.692607,29.9409857 445.527886,30.5525292 C446.35214,31.1634241 446.745785,32.2769131 446.86511,33.3378729 C446.851492,32.2697795 446.614786,31.0959792 445.749676,30.2795071 C445.317121,29.8832685 444.724384,29.6595331 444.139429,29.618677 C443.550584,29.5732815 442.971466,29.6712062 442.422827,29.8255512 C441.322309,30.1420233 440.328145,30.6815824 439.379377,31.2619974 C438.425422,31.8605707 437.549287,32.4785992 436.654994,33.2140078 C435.783398,33.9695201 434.958495,34.920882 434.553826,36.1660182 C434.128405,37.4046693 434.304799,38.8573281 434.881323,39.9948119 C435.449416,41.1498054 436.300259,42.0680934 437.221141,42.8307393 C438.149157,43.5920882 439.168612,44.2036316 440.23476,44.7023346 C442.364462,45.728275 444.743839,46.116083 447.143969,46.0058366 C448.345655,45.9403372 449.570039,45.7107652 450.742542,45.2230869 C451.911154,44.7399481 453.022049,43.963035 453.848898,42.9332036 C454.262646,42.4332036 454.611543,41.8249027 454.855383,41.3093385 C455.108301,40.7970169 455.344358,40.2756161 455.563554,39.7477302 C456.001946,38.6906615 456.365759,37.6005188 456.653696,36.4876783 C457.220493,34.2613489 457.477951,31.9150454 457.206226,29.5583658 C456.947471,27.2114137 456.083009,24.8501946 454.590791,22.9280156 C453.105058,20.998703 451.071984,19.580415 448.929961,18.6588846 C446.774319,17.7263294 444.529831,17.228275 442.262646,16.959144 C440.055772,16.6647211 437.552529,16.7023346 435.264591,17.4993515 C432.955901,18.2697795 430.922827,19.7937743 429.442931,21.6400778 C427.944877,23.4870298 426.918936,25.5985733 426.164721,27.7438392 C425.413748,29.8975357 424.93061,32.1063554 424.616083,34.3229572 C424.30869,36.5525292 424.149805,38.7444877 424.190013,41.0428016 C424.210117,41.4370947 424.24773,41.690013 424.291829,42.001297 C424.336576,42.2970169 424.389754,42.5875486 424.450713,42.8767834 C424.572633,43.4539559 424.723087,44.0201038 424.900778,44.5771725 C425.256161,45.692607 425.719844,46.771725 426.286641,47.7976654 C427.415694,49.8514916 428.977302,51.6763943 430.8262,53.1128405 C432.6738,54.5564202 434.785344,55.6076524 436.966278,56.3210117 C439.151102,57.036965 441.405318,57.4280156 443.651102,57.6057069 C444.773022,57.692607 445.896239,57.733463 447.034371,57.7172503 C448.219844,57.6945525 449.398833,57.5311284 450.540208,57.2470817 C452.828145,56.6835279 454.953307,55.6459144 456.846952,54.3398184 C460.640726,51.7062257 463.559663,48.0642023 465.636187,44.0499351 C467.699092,40.0246433 468.935798,35.536965 468.964332,30.9513619 C468.975357,28.6627756 468.671206,26.3540856 467.994812,24.1407263 L467.994812,24.1407263 Z M440.625162,8.06679637 L440.610246,8.0693904 L440.610246,8.0693904 L440.631647,8.06420233 C440.638781,8.06290532 440.639429,8.06290532 440.639429,8.06290532 L440.625162,8.06679637 L440.625162,8.06679637 Z" id="Shape" fill="#736357" transform="translate(446.574245, 32.881121) rotate(-30.000000) translate(-446.574245, -32.881121) "></path>
                <path d="M453.154645,70.068227 C453.154645,70.068227 429.960741,99.3872932 450.835579,142.747864 C450.835579,142.748512 469.218199,105.320497 453.154645,70.068227 L453.154645,70.068227 Z" id="Shape" fill="url(#linearGradient-1)" transform="translate(450.930920, 106.408045) rotate(-355.000000) translate(-450.930920, -106.408045) "></path>
                <path d="M430.5,70.8002594 C395.054475,76.4033722 401.70882,122.023995 401.70882,122.023995 C401.70882,122.023995 441.817769,69.0097276 430.5,70.8002594 L430.5,70.8002594 Z" id="Shape" fill="url(#linearGradient-2)"></path>
                <path d="M483.767834,50.5129702 C508.229572,59.7081712 496.796368,91.271725 496.796368,91.271725 C496.796368,91.271725 475.955901,47.5784695 483.767834,50.5129702 L483.767834,50.5129702 Z" id="Shape" fill="url(#linearGradient-3)"></path>
                <path d="M3.80415045,126.485084 L0.183527886,112.746433 L17.0129702,109.980545 L23.9033722,111.6738 L32.498703,107.095979 L340.789235,51.3313878 L343.420233,47.7003891 L349.301556,45.8242542 L353.491569,49.0343709 L398.337873,40.920882 L399.973411,49.6990921 L374.184825,54.6692607 L371.589494,59.5207523 L365.059014,61.580415 L360.149805,57.3754864 L34.811284,120.085603 L25.7594034,118.425422 L19.7392996,123.515564 L3.80415045,126.485084 Z" id="Shape" fill="#998675"></path>
            </g>
            <g id="shaman_patrick" transform="translate(43.014267, 266.402075)" fill="#074541" sketch:type="MSShapeGroup">
                <g id="Ebene_2">
                    <path d="M49.0422183,0.359273671 C49.0422183,0.359273671 -18.7168593,48.8166473 6.68320571,138.335748 C26.0942143,206.747266 94.7211024,185.293328 69.1669274,122.517733 C69.1662424,122.517733 44.4243983,90.0050899 49.0422183,0.359273671 L49.0422183,0.359273671 Z" id="Shape"></path>
                </g>
            </g>
            <g id="head" transform="translate(188.500000, 157.500000) rotate(-5.000000) translate(-188.500000, -157.500000) translate(107.000000, 7.000000)" sketch:type="MSShapeGroup">
                <path d="M162.191958,288.333982 C162.191958,294.90856 156.861868,300.610895 150.287938,300.610895 L12.3988327,300.610895 C5.82490272,300.610895 0.494811933,294.90856 0.494811933,288.333982 L30.2555123,113.905966 C30.2555123,107.331388 35.5856031,102.167315 42.1595331,102.167315 L129.455901,102.167315 C136.029831,102.167315 141.359922,107.331388 141.359922,113.905966 L162.191958,288.333982 L162.191958,288.333982 Z" id="Shape" fill="#C7B299"></path>
                <g id="Group" transform="translate(20.756161, 175.448768)" fill="#736357">
                    <path d="M99.5933852,0.173800259 L98.5732815,0.0920881971 L98.5732815,0.273670558 C97.924773,0.324254215 95.5849546,0.387808042 91.077821,0.387808042 C82.1335927,0.387808042 77.7380026,9.12127108 77.5564202,9.49286641 L77.4500649,9.71076524 L77.4584955,9.95330739 C77.4773022,10.4954604 79.348249,64.2490272 79.348249,71.3994812 C79.348249,77.4552529 73.6614786,78.3858625 73.0434501,78.4688716 L58.5032425,78.4688716 C54.3904021,78.4688716 54.0654994,73.9889754 54.0557717,73.8411154 C54.0473411,73.2827497 53.2347601,17.919585 53.2347601,8.95979248 C53.2347601,6.16472114 52.3631647,4.10311284 50.6446174,2.8307393 C47.6374838,0.605058366 43.1057069,1.6997406 42.2153048,1.94487678 L27.6413748,1.94487678 L27.5667964,2.01750973 C9.83592737,3.37808042 -0.412451362,13.2133593 0.154345006,28.2107652 C0.642671855,41.1446174 9.9773022,55.771725 21.7392996,55.771725 L21.7762646,55.771725 C42.6673152,55.771725 43.6264591,37.0849546 43.6342412,36.8923476 C43.6562905,36.2380026 44.0875486,20.6478599 36.7898833,13.7931258 C34.19131,11.3527886 30.9357977,10.3035019 27.1199741,10.6712062 C20.6141375,11.2989624 16.0492866,13.8184176 13.5518807,18.1595331 C10.6958495,23.1251621 10.8891051,30.2224384 14.0680934,37.1439689 C15.4805447,40.2178988 18.5201038,41.8988327 22.4137484,41.7632944 C27.2996109,41.5894942 32.190013,38.6245136 33.5466926,35.0136187 C34.4980545,32.4831388 33.7114137,29.8579767 31.3320363,27.6219196 C27.7146563,24.2204929 24.9494163,22.9831388 22.8787289,23.8359274 C20.4785992,24.8255512 20.3365759,28.1997406 20.3313878,28.343061 L22.2756161,28.4124514 C22.2762646,28.3897536 22.4007782,26.1335927 23.6238651,25.6335927 C24.2003891,25.3981842 25.9773022,25.2581064 29.9993515,29.0402075 C31.8203632,30.7522698 32.4007782,32.5330739 31.7250324,34.3320363 C30.6420233,37.2133593 26.4338521,39.6783398 22.3437095,39.8236057 C20.5460441,39.8916991 17.2983139,39.5239948 15.8359274,36.3411154 C13.5836576,31.4370947 12.2431907,24.3527886 15.2380026,19.1472114 C17.4033722,15.3832685 21.4636835,13.2062257 27.306096,12.6426719 C30.5440986,12.3313878 33.2833982,13.2412451 35.4546044,15.2788586 C42.1115435,21.5272374 41.693904,36.6757458 41.6893645,36.8203632 C41.6614786,37.5097276 40.770428,53.8261997 21.7769131,53.8261997 L21.7418936,53.8261997 C12.1407263,53.8261997 2.59468223,41.2600519 2.09857328,28.1381323 C1.84824903,21.502594 3.8385214,5.73605707 27.6789883,3.89105058 L42.497406,3.89105058 L42.6361868,3.84889754 C43.8385214,3.48054475 47.4150454,2.8618677 49.4870298,4.39559014 C50.6828794,5.28015564 51.2892348,6.81647211 51.2892348,8.96044099 C51.2892348,17.9345006 52.1018158,73.3119326 52.1115435,73.9098573 C52.2360571,76.1601816 53.7328145,80.4150454 58.5032425,80.4150454 L73.156939,80.4150454 L73.2101167,80.4085603 C76.0064851,80.1018158 81.2944228,77.8229572 81.2944228,71.3981842 C81.2944228,64.4708171 79.5538262,14.2068742 79.4124514,10.1394293 C80.0933852,8.89169909 84.0084306,2.32555123 91.0505837,2.32555123 C94.5674449,2.32555123 97.0687419,2.28015564 98.4850843,2.2075227 C98.8677043,2.18806744 99.232166,2.1536965 99.540856,2.09143969 C123.319715,4.00518807 125.287289,19.8702983 125.027237,26.6258106 C124.513619,39.963035 114.965629,52.5291829 105.380026,52.5291829 L105.340467,52.5291829 C86.3566796,52.5291829 85.4513619,37.2866407 85.422179,36.6433204 C85.4169909,36.4915694 84.9805447,21.4727626 91.6413748,15.2120623 C93.8106355,13.1731518 96.5518807,12.2983139 99.7859922,12.6089494 C105.621271,13.1718547 109.675097,15.3599222 111.833333,19.112192 C114.820363,24.3054475 113.474708,31.4040208 111.218547,36.3151751 C109.758106,39.4941634 106.509728,39.8599222 104.70428,39.7970169 C100.584306,39.650454 96.346952,37.1738003 95.2581064,34.2756161 C94.5830091,32.4798962 95.1614786,30.7036316 96.9773022,28.9961089 C101.009728,25.2049287 102.741245,25.3391699 103.300259,25.5745785 C104.276913,25.9844358 104.533074,27.7263294 104.546044,28.3015564 L106.491569,28.270428 C106.488975,28.1277562 106.40856,24.7762646 104.06096,23.7840467 C102.027886,22.9254215 99.2743191,24.1653696 95.6439689,27.5784695 C93.2697795,29.809987 92.4857328,32.4312581 93.4357977,34.959144 C94.7996109,38.5869001 99.7185473,41.5648508 104.634241,41.7392996 C108.525292,41.8735409 111.575227,40.193904 112.985733,37.1232166 C116.169909,30.19131 116.36965,23.0901427 113.518807,18.1342412 C111.028534,13.804799 106.470169,11.2840467 99.9721141,10.656939 C96.1595331,10.2905318 92.9040208,11.3229572 90.30869,13.7626459 C83.0123217,20.6206226 83.4552529,36.0551232 83.4779507,36.7172503 C83.4850843,36.8955901 84.4513619,54.4753567 105.340467,54.4753567 L105.381323,54.4753567 C117.125162,54.4753567 126.479896,39.8313878 126.984436,26.7010376 C127.571984,11.4370947 117.341115,1.56031128 99.5933852,0.173800259 L99.5933852,0.173800259 Z" id="Shape"></path>
                    <path d="M103.448119,97.924773 L92.7367056,97.924773 L90.7911803,97.924773 L71.3359274,97.924773 L69.3904021,97.924773 L49.2866407,97.924773 L47.3411154,97.924773 L27.2373541,97.924773 L25.2918288,97.924773 L18.1355383,97.924773 C11.1335927,97.924773 3.89105058,102.267834 3.89105058,109.536316 L3.89105058,125.162127 L5.83657588,125.162127 L5.83657588,109.536316 C5.83657588,103.485733 12.0901427,99.8702983 18.1355383,99.8702983 L25.2918288,99.8702983 L25.2918288,123.86511 L27.2373541,123.86511 L27.2373541,99.8702983 L47.3411154,99.8702983 L47.3411154,123.86511 L49.2866407,123.86511 L49.2866407,99.8702983 L69.3904021,99.8702983 L69.3904021,123.86511 L71.3359274,123.86511 L71.3359274,99.8702983 L90.7911803,99.8702983 L90.7911803,123.86511 L92.7367056,123.86511 L92.7367056,99.8702983 L103.448119,99.8702983 C109.417639,99.8702983 112.840467,103.393645 112.840467,109.536316 L112.840467,125.162127 L114.785992,125.162127 L114.785992,109.536316 C114.785992,102.374189 110.441634,97.924773 103.448119,97.924773 L103.448119,97.924773 Z" id="Shape"></path>
                </g>
                <path d="M88.0869001,94.2963684 C88.0869001,94.2963684 113.201038,53.4468223 80.0596628,1.36964981 C80.0596628,1.3690013 62.2989624,51.8210117 88.0869001,94.2963684 L88.0869001,94.2963684 Z" id="Shape" fill="url(#linearGradient-4)" transform="translate(85.650258, 47.833009) rotate(-5.000000) translate(-85.650258, -47.833009) "></path>
                <path d="M104.627756,94.6465629 C148.931258,82.153048 133.56096,25.0486381 133.56096,25.0486381 C133.56096,25.0486381 90.4811933,98.6361868 104.627756,94.6465629 L104.627756,94.6465629 Z" id="Shape" fill="url(#linearGradient-5)" transform="translate(118.957911, 59.925878) rotate(-5.000000) translate(-118.957911, -59.925878) "></path>
                <path d="M23.2568093,72.4597925 C23.2568093,72.4597925 78.1037613,101.570039 74.773022,91.3981842 C64.3378729,59.5440986 23.2568093,72.4597925 23.2568093,72.4597925 Z" id="Shape" fill="url(#linearGradient-6)" transform="translate(49.087808, 81.712425) rotate(-5.000000) translate(-49.087808, -81.712425) "></path>
            </g>
        </g>
    </g>
</svg>